<svg width="20rem" height="5rem" xmlns="http://www.w3.org/2000/svg" viewBox="-27.728759765625 12.087499999999999 555.45751953125 125.825" style="background: none;" preserveAspectRatio="xMidYMid"><defs><linearGradient id="editing-shadow-gradient1" x1="0" x2="0" y1="0" y2="1"><stop offset="0" stop-color="#dce4eb" stop-opacity="0"></stop><stop offset="0.2" stop-color="#dce4eb" stop-opacity="0"></stop><stop offset="1" stop-color="transparent" stop-opacity="1"></stop></linearGradient><linearGradient id="editing-shadow-gradient2" x1="-0.5" x2="1.5" y1="0.5" y2="0.5"><stop offset="0" stop-color="#85a2b6"></stop><stop offset="1" stop-color="#bbcedd"></stop></linearGradient><filter id="editing-shadow" x="-100%" y="-100%" width="300%" height="300%"><feGaussianBlur stdDeviation="2"></feGaussianBlur><feComposite operator="in" in2="SourceGraphic"></feComposite><feGaussianBlur stdDeviation="1"></feGaussianBlur></filter></defs><g transform="translate(250,75)"><g transform="translate(-29.2, -1)"><g transform="skewX(45)"><g filter="url(#editing-shadow)"><g transform="translate(-157.639368891716, 22.780000686645508)"><path d="M40.77 0L35.39-11.97L10.43-11.97L5.06 0L0.13 0L20.61-44.80L25.28-44.80L45.76 0L40.77 0ZM12.16-15.81L33.66-15.81L22.91-39.87L12.16-15.81ZM84.74-7.30L84.74-22.40L89.28-22.40L89.28-5.31L89.28-5.31Q86.14-2.56 81.86-1.09L81.86-1.09L81.86-1.09Q77.57 0.38 72.83 0.38L72.83 0.38L72.83 0.38Q66.11 0.38 60.74-2.56L60.74-2.56L60.74-2.56Q55.36-5.50 52.29-10.72L52.29-10.72L52.29-10.72Q49.22-15.94 49.22-22.40L49.22-22.40L49.22-22.40Q49.22-28.86 52.29-34.08L52.29-34.08L52.29-34.08Q55.36-39.30 60.74-42.24L60.74-42.24L60.74-42.24Q66.11-45.18 72.90-45.18L72.90-45.18L72.90-45.18Q78.02-45.18 82.30-43.55L82.30-43.55L82.30-43.55Q86.59-41.92 89.54-38.72L89.54-38.72L86.59-35.71L86.59-35.71Q81.28-40.96 73.09-40.96L73.09-40.96L73.09-40.96Q67.65-40.96 63.26-38.56L63.26-38.56L63.26-38.56Q58.88-36.16 56.38-31.90L56.38-31.90L56.38-31.90Q53.89-27.65 53.89-22.40L53.89-22.40L53.89-22.40Q53.89-17.15 56.38-12.93L56.38-12.93L56.38-12.93Q58.88-8.70 63.23-6.27L63.23-6.27L63.23-6.27Q67.58-3.84 73.02-3.84L73.02-3.84L73.02-3.84Q79.94-3.84 84.74-7.30L84.74-7.30ZM152.19-44.80L156.86-44.80L156.86 0L152.96 0L124.16-36.35L124.16 0L119.42 0L119.42-44.80L123.33-44.80L152.19-8.45L152.19-44.80ZM176.19-4.10L203.14-4.10L203.14 0L171.46 0L171.46-44.80L202.18-44.80L202.18-40.70L176.19-40.70L176.19-24.77L199.36-24.77L199.36-20.74L176.19-20.74L176.19-4.10ZM271.23-44.80L275.78-44.80L260.67 0L255.68 0L242.56-38.21L229.38 0L224.45 0L209.34-44.80L214.21-44.80L227.14-6.27L240.51-44.80L244.93-44.80L258.11-6.08L271.23-44.80ZM297.73 0.38L297.73 0.38Q292.74 0.38 288.16-1.22L288.16-1.22L288.16-1.22Q283.58-2.82 281.09-5.44L281.09-5.44L282.94-9.09L282.94-9.09Q285.38-6.66 289.41-5.15L289.41-5.15L289.41-5.15Q293.44-3.65 297.73-3.65L297.73-3.65L297.73-3.65Q303.74-3.65 306.75-5.86L306.75-5.86L306.75-5.86Q309.76-8.06 309.76-11.58L309.76-11.58L309.76-11.58Q309.76-14.27 308.13-15.87L308.13-15.87L308.13-15.87Q306.50-17.47 304.13-18.34L304.13-18.34L304.13-18.34Q301.76-19.20 297.54-20.22L297.54-20.22L297.54-20.22Q292.48-21.50 289.47-22.69L289.47-22.69L289.47-22.69Q286.46-23.87 284.32-26.30L284.32-26.30L284.32-26.30Q282.18-28.74 282.18-32.90L282.18-32.90L282.18-32.90Q282.18-36.29 283.97-39.07L283.97-39.07L283.97-39.07Q285.76-41.86 289.47-43.52L289.47-43.52L289.47-43.52Q293.18-45.18 298.69-45.18L298.69-45.18L298.69-45.18Q302.53-45.18 306.21-44.13L306.21-44.13L306.21-44.13Q309.89-43.07 312.58-41.22L312.58-41.22L310.98-37.44L310.98-37.44Q308.16-39.30 304.96-40.22L304.96-40.22L304.96-40.22Q301.76-41.15 298.69-41.15L298.69-41.15L298.69-41.15Q292.80-41.15 289.82-38.88L289.82-38.88L289.82-38.88Q286.85-36.61 286.85-33.02L286.85-33.02L286.85-33.02Q286.85-30.34 288.48-28.70L288.48-28.70L288.48-28.70Q290.11-27.07 292.58-26.21L292.58-26.21L292.58-26.21Q295.04-25.34 299.20-24.32L299.20-24.32L299.20-24.32Q304.13-23.10 307.17-21.92L307.17-21.92L307.17-21.92Q310.21-20.74 312.32-18.34L312.32-18.34L312.32-18.34Q314.43-15.94 314.43-11.84L314.43-11.84L314.43-11.84Q314.43-8.45 312.61-5.66L312.61-5.66L312.61-5.66Q310.78-2.88 307.01-1.25L307.01-1.25L307.01-1.25Q303.23 0.38 297.73 0.38L297.73 0.38Z" fill="url(#editing-shadow-gradient1)"></path></g></g></g></g><g><g transform="translate(-157.779993891716, 22.780000686645508)"><path d="M40.77 0L35.39-11.97L10.43-11.97L5.06 0L0.13 0L20.61-44.80L25.28-44.80L45.76 0L40.77 0ZM12.16-15.81L33.66-15.81L22.91-39.87L12.16-15.81ZM84.74-7.30L84.74-22.40L89.28-22.40L89.28-5.31L89.28-5.31Q86.14-2.56 81.86-1.09L81.86-1.09L81.86-1.09Q77.57 0.38 72.83 0.38L72.83 0.38L72.83 0.38Q66.11 0.38 60.74-2.56L60.74-2.56L60.74-2.56Q55.36-5.50 52.29-10.72L52.29-10.72L52.29-10.72Q49.22-15.94 49.22-22.40L49.22-22.40L49.22-22.40Q49.22-28.86 52.29-34.08L52.29-34.08L52.29-34.08Q55.36-39.30 60.74-42.24L60.74-42.24L60.74-42.24Q66.11-45.18 72.90-45.18L72.90-45.18L72.90-45.18Q78.02-45.18 82.30-43.55L82.30-43.55L82.30-43.55Q86.59-41.92 89.54-38.72L89.54-38.72L86.59-35.71L86.59-35.71Q81.28-40.96 73.09-40.96L73.09-40.96L73.09-40.96Q67.65-40.96 63.26-38.56L63.26-38.56L63.26-38.56Q58.88-36.16 56.38-31.90L56.38-31.90L56.38-31.90Q53.89-27.65 53.89-22.40L53.89-22.40L53.89-22.40Q53.89-17.15 56.38-12.93L56.38-12.93L56.38-12.93Q58.88-8.70 63.23-6.27L63.23-6.27L63.23-6.27Q67.58-3.84 73.02-3.84L73.02-3.84L73.02-3.84Q79.94-3.84 84.74-7.30L84.74-7.30ZM152.19-44.80L156.86-44.80L156.86 0L152.96 0L124.16-36.35L124.16 0L119.42 0L119.42-44.80L123.33-44.80L152.19-8.45L152.19-44.80ZM176.19-4.10L203.14-4.10L203.14 0L171.46 0L171.46-44.80L202.18-44.80L202.18-40.70L176.19-40.70L176.19-24.77L199.36-24.77L199.36-20.74L176.19-20.74L176.19-4.10ZM271.23-44.80L275.78-44.80L260.67 0L255.68 0L242.56-38.21L229.38 0L224.45 0L209.34-44.80L214.21-44.80L227.14-6.27L240.51-44.80L244.93-44.80L258.11-6.08L271.23-44.80ZM297.73 0.38L297.73 0.38Q292.74 0.38 288.16-1.22L288.16-1.22L288.16-1.22Q283.58-2.82 281.09-5.44L281.09-5.44L282.94-9.09L282.94-9.09Q285.38-6.66 289.41-5.15L289.41-5.15L289.41-5.15Q293.44-3.65 297.73-3.65L297.73-3.65L297.73-3.65Q303.74-3.65 306.75-5.86L306.75-5.86L306.75-5.86Q309.76-8.06 309.76-11.58L309.76-11.58L309.76-11.58Q309.76-14.27 308.13-15.87L308.13-15.87L308.13-15.87Q306.50-17.47 304.13-18.34L304.13-18.34L304.13-18.34Q301.76-19.20 297.54-20.22L297.54-20.22L297.54-20.22Q292.48-21.50 289.47-22.69L289.47-22.69L289.47-22.69Q286.46-23.87 284.32-26.30L284.32-26.30L284.32-26.30Q282.18-28.74 282.18-32.90L282.18-32.90L282.18-32.90Q282.18-36.29 283.97-39.07L283.97-39.07L283.97-39.07Q285.76-41.86 289.47-43.52L289.47-43.52L289.47-43.52Q293.18-45.18 298.69-45.18L298.69-45.18L298.69-45.18Q302.53-45.18 306.21-44.13L306.21-44.13L306.21-44.13Q309.89-43.07 312.58-41.22L312.58-41.22L310.98-37.44L310.98-37.44Q308.16-39.30 304.96-40.22L304.96-40.22L304.96-40.22Q301.76-41.15 298.69-41.15L298.69-41.15L298.69-41.15Q292.80-41.15 289.82-38.88L289.82-38.88L289.82-38.88Q286.85-36.61 286.85-33.02L286.85-33.02L286.85-33.02Q286.85-30.34 288.48-28.70L288.48-28.70L288.48-28.70Q290.11-27.07 292.58-26.21L292.58-26.21L292.58-26.21Q295.04-25.34 299.20-24.32L299.20-24.32L299.20-24.32Q304.13-23.10 307.17-21.92L307.17-21.92L307.17-21.92Q310.21-20.74 312.32-18.34L312.32-18.34L312.32-18.34Q314.43-15.94 314.43-11.84L314.43-11.84L314.43-11.84Q314.43-8.45 312.61-5.66L312.61-5.66L312.61-5.66Q310.78-2.88 307.01-1.25L307.01-1.25L307.01-1.25Q303.23 0.38 297.73 0.38L297.73 0.38Z" fill="url(#editing-shadow-gradient2)"></path></g></g></g><style>text {
  font-size: 64px;
  font-family: Arial Black;
  dominant-baseline: central;
  text-anchor: middle;
}</style></svg>