<svg xmlns="http://www.w3.org/2000/svg" id="Layer_1" x="0px" y="0px" version="1.1" xmlns:xlink="http://www.w3.org/1999/xlink" xmlns:svgjs="http://svgjs.com/svgjs" width="2160" height="1000" preserveAspectRatio="none" viewBox="0 0 2160 1000">
    <g mask="url(&quot;#SvgjsMask1014&quot;)" fill="none">
        <rect width="2160" height="1000" x="0" y="0" fill="#0e2a47"></rect>
        <path d="M 0,451 C 86.4,401.8 259.2,219.2 432,205 C 604.8,190.8 691.2,409 864,380 C 1036.8,351 1123.2,53.6 1296,60 C 1468.8,66.4 1555.2,393.6 1728,412 C 1900.8,430.4 2073.6,204 2160,152L2160 1000L0 1000z" fill="#184a7e"></path>
        <path d="M 0,931 C 144,873.8 432,661.6 720,645 C 1008,628.4 1152,849.2 1440,848 C 1728,846.8 2016,680.8 2160,639L2160 1000L0 1000z" fill="#2264ab"></path>
    </g>
    <defs>
        <mask id="SvgjsMask1014">
            <rect width="2160" height="1000" fill="#ffffff"></rect>
        </mask>
    </defs>
</svg>